<?xml version="1.0" standalone="no"?>
<!DOCTYPE svg PUBLIC "-//W3C//DTD SVG 20010904//EN"
 "http://www.w3.org/TR/2001/REC-SVG-20010904/DTD/svg10.dtd">
<svg version="1.0" xmlns="http://www.w3.org/2000/svg"
 width="48.000000pt" height="48.000000pt" viewBox="0 0 48.000000 48.000000"
 preserveAspectRatio="xMidYMid meet">

<g transform="translate(0.000000,48.000000) scale(0.100000,-0.100000)"
fill="#000000" stroke="none">
<path d="M0 240 l0 -140 140 0 140 0 0 140 0 140 -140 0 -140 0 0 -140z m200
0 l0 -50 -55 0 -55 0 0 50 0 50 55 0 55 0 0 -50z"/>
<path d="M370 240 l0 -50 55 0 55 0 0 50 0 50 -55 0 -55 0 0 -50z"/>
</g>
</svg>
